<svg width="159" height="159" viewBox="0 0 159 159" fill="none" xmlns="http://www.w3.org/2000/svg">
<path d="M64.7191 0.892573C63.709 0.88235 62.8582 1.64069 62.7587 2.64001L61.3808 16.8349C55.2468 18.3036 49.3937 20.7536 44.0504 24.089L33.0544 15.0326C32.2724 14.3879 31.1252 14.4406 30.4063 15.1543L15.4581 30.0104C14.7399 30.7244 14.686 31.8643 15.3337 32.6421L24.4456 43.579C21.116 48.9022 18.6525 54.7144 17.1461 60.8012L2.77591 62.1708C1.75134 62.2609 0.955592 63.097 0.921875 64.1189V85.1838C0.955905 86.2055 1.75157 87.0412 2.77591 87.1313L17.1019 88.4997C18.5879 94.5978 21.0601 100.416 24.4219 105.726L15.3241 116.658C14.6772 117.437 14.733 118.578 15.4529 119.29L30.4019 134.148C31.1207 134.862 32.2676 134.916 33.0506 134.272L44.0537 125.213C49.4084 128.524 55.2555 130.973 61.3789 132.471L62.7568 146.684C62.8542 147.687 63.7028 148.453 64.7172 148.453H85.1443C86.1581 148.453 87.006 147.687 87.1034 146.684L88.4819 132.47C88.7365 132.408 88.9896 132.34 89.2439 132.275C93.8214 148.739 109.609 159.577 126.719 158.001C143.83 156.426 157.346 142.889 158.803 125.869C160.26 108.849 149.239 93.2374 132.642 88.8105C132.668 88.7068 132.696 88.6034 132.722 88.4997L147.07 87.1293C148.091 87.038 148.881 86.2006 148.907 85.1819V64.1189C148.881 63.1001 148.091 62.2623 147.07 62.1708L132.743 60.8012C131.232 54.7137 128.764 48.9015 125.43 43.579L134.534 32.644C135.181 31.8656 135.126 30.7256 134.407 30.0123L119.458 15.1518C118.74 14.4371 117.592 14.3836 116.81 15.0282L105.812 24.0833C100.469 20.7466 94.6161 18.2951 88.4819 16.8247L87.1034 2.64129C87.0046 1.6422 86.1548 0.883408 85.1449 0.892573H64.7191ZM66.5071 4.80664H83.3562L84.6982 18.6256C84.7809 19.4705 85.4053 20.1644 86.2408 20.3399C92.8858 21.7601 99.2041 24.4061 104.868 28.1407C105.592 28.616 106.544 28.5643 107.211 28.0133L117.938 19.1805L130.352 31.5202L121.468 42.1833C120.917 42.8443 120.864 43.7851 121.337 44.5034C125.067 50.1564 127.73 56.4371 129.197 63.0385C129.407 63.8737 130.125 64.4854 130.988 64.563L144.969 65.8963V83.4051L130.988 84.7391C130.129 84.819 129.418 85.4366 129.224 86.2719C129.099 86.8486 128.948 87.4273 128.803 88.0047C125.144 87.4541 121.422 87.4726 117.769 88.0595C119.151 83.7223 119.851 79.199 119.845 74.6495C119.845 50.1895 99.8252 30.2901 75.2198 30.2901C50.6143 30.2901 30.5948 50.1895 30.5948 74.6495C30.5948 99.1094 50.6134 119.009 75.2198 119.009C79.7077 119.014 84.1706 118.344 88.4569 117.022C87.818 120.802 87.8017 124.661 88.4089 128.447C87.6837 128.638 86.9563 128.817 86.2312 128.976C85.3984 129.159 84.779 129.854 84.6969 130.698L83.3556 144.539H66.504L65.162 130.698C65.08 129.854 64.4609 129.158 63.6284 128.975C56.9875 127.516 50.6693 124.868 44.9829 121.16C44.2603 120.689 43.3135 120.742 42.6483 121.29L31.9207 130.122L19.509 117.783L28.3934 107.119C28.9467 106.455 28.9975 105.509 28.5184 104.79C24.7599 99.1598 22.0964 92.8794 20.6658 86.2738C20.4515 85.4324 19.7257 84.8175 18.856 84.7404L4.85939 83.4058V65.8963L18.856 64.563C19.7142 64.4848 20.4269 63.8716 20.628 63.0385C22.1008 56.4356 24.7701 50.1543 28.5055 44.5015C28.9811 43.7852 28.9317 42.8445 28.3838 42.1814L19.5045 31.5177L31.9207 19.1805L42.6508 28.0126C43.3192 28.5628 44.2712 28.613 44.9945 28.1362C50.6579 24.3998 56.9757 21.7517 63.6207 20.3291C64.4553 20.1589 65.0813 19.4685 65.1652 18.6256L66.5071 4.80664ZM75.246 34.2041C88.6342 34.2121 101.162 40.7651 108.751 51.7293C116.339 62.6935 118.018 76.6664 113.239 89.0985C110.949 89.7836 108.734 90.698 106.629 91.8276C106.29 85.5953 101.112 80.712 94.8329 80.7047H55.6611C52.535 80.7105 49.5395 81.9516 47.3346 84.1545C45.1297 86.3574 43.8963 89.3413 43.9063 92.4488V100.31C37.8431 93.1222 34.5411 84.0297 34.5874 74.6495C34.5874 52.3478 52.8108 34.2042 75.246 34.2042L75.246 34.2041ZM74.75 39.3675C66.2959 39.3675 59.3281 46.2046 59.3281 54.6084V59.922C59.3281 68.3259 66.2959 75.1629 74.75 75.1629C83.2041 75.1629 90.1719 68.3259 90.1719 59.922V54.6084C90.1719 46.2046 83.2041 39.3675 74.75 39.3675ZM75.0852 43.1974C81.2946 43.3777 86.2343 48.4333 86.2344 54.6084V59.922C86.2344 66.2269 81.0927 71.3381 74.75 71.3381C68.4074 71.3381 63.2656 66.2269 63.2656 59.922V54.6084C63.2657 51.5229 64.5222 48.5689 66.7488 46.4192C68.9754 44.2696 71.9826 43.1074 75.0852 43.1975L75.0852 43.1974ZM55.6611 84.6206H94.8278C96.9092 84.6253 98.9031 85.4536 100.369 86.9224C101.835 88.3912 102.652 90.3798 102.641 92.4488V94.2758C96.3665 98.7651 91.747 105.176 89.4906 112.526C75.187 117.872 59.0736 114.744 47.8438 104.442V92.4488C47.8331 90.3793 48.6515 88.3908 50.1181 86.9221C51.5848 85.4533 53.5792 84.6253 55.6611 84.6206H55.6611ZM122.135 91.548C130.722 91.1926 139.083 94.3352 145.285 100.249C151.487 106.163 154.993 114.336 154.993 122.879C154.974 140.19 140.861 154.218 123.447 154.237C106.279 154.239 92.2616 140.593 91.9045 123.531C91.5475 106.469 104.982 92.2558 122.135 91.548V91.548ZM123.255 100.376C122.19 100.407 121.344 101.273 121.344 102.332V104.978C115.981 106.053 112.31 110.993 112.853 116.404C113.396 121.816 117.976 125.938 123.447 125.939C127.153 125.939 130.158 128.926 130.158 132.61C130.157 136.294 127.153 139.281 123.446 139.28C119.74 139.28 116.736 136.294 116.736 132.609C116.736 131.528 115.854 130.652 114.767 130.652C113.68 130.652 112.798 131.528 112.798 132.609C112.804 137.144 115.712 141.174 120.031 142.633V146.365C120.031 147.446 120.913 148.322 122 148.322C123.087 148.322 123.969 147.446 123.969 146.365V143.181C129.742 142.901 134.235 138.094 134.094 132.35C133.952 126.606 129.227 122.024 123.447 122.025C121.029 122.057 118.78 120.792 117.561 118.715C116.342 116.638 116.342 114.07 117.561 111.993C118.78 109.916 121.029 108.652 123.447 108.684V108.683C127.151 108.688 130.153 111.672 130.158 115.354C130.158 116.435 131.039 117.311 132.126 117.311C133.214 117.311 134.095 116.435 134.095 115.354C134.087 110.215 130.373 105.822 125.281 104.93V102.332C125.281 101.803 125.066 101.297 124.684 100.928C124.302 100.559 123.787 100.36 123.255 100.376L123.255 100.376Z" fill="black"/>
</svg>
